<svg width="778" height="778" viewBox="0 0 778 778" fill="none" xmlns="http://www.w3.org/2000/svg">
<mask id="path-1-inside-1_121601_33" fill="white">
<path d="M778 389C778 285.831 737.016 186.887 664.065 113.935C591.113 40.9838 492.169 7.78906e-06 389 0C285.831 -7.78906e-06 186.887 40.9838 113.935 113.935C40.9838 186.887 1.55781e-05 285.831 0 389L389 389H778Z"/>
</mask>
<path d="M778 389C778 285.831 737.016 186.887 664.065 113.935C591.113 40.9838 492.169 7.78906e-06 389 0C285.831 -7.78906e-06 186.887 40.9838 113.935 113.935C40.9838 186.887 1.55781e-05 285.831 0 389L389 389H778Z" fill="#B61E1E" stroke="black" stroke-width="6" mask="url(#path-1-inside-1_121601_33)"/>
<mask id="path-2-inside-2_121601_33" fill="white">
<path d="M778 389C778 305.031 750.83 223.316 700.549 156.066L389 389H778Z"/>
</mask>
<path d="M778 389C778 305.031 750.83 223.316 700.549 156.066L389 389H778Z" fill="#F2F2F2" stroke="black" stroke-width="6" mask="url(#path-2-inside-2_121601_33)"/>
</svg>
